# xmcd CD database file
#
# Track frame offsets:
#	150
#	12650
#	30394
#	40932
#	56193
#	68808
#	83051
#	94377
#	106177
#	116942
#	129311
#	141874
#	157893
#	183169
#	193801
#	209385
#	223017
#	236369
#	254890
#
# Disc length: 3694 seconds
#
# Revision: 0
# Processed by: cddbd v1.5.1PL0 Copyright (c) Steve Scherf et al.
# Submitted via: CDex 1.51
#
DISCID=170e6c13
DTITLE=Howlin' Wolf - Blues Cafe presents Howlin' Wolf
DYEAR=2003
DGENRE=Blues
TTITLE0=Ain't Superstitious
TTITLE1=Goin' Down Slow
TTITLE2=Somebody Walking In My House
TTITLE3=Commit A Crime
TTITLE4=My Mind Is Rambling
TTITLE5=I Walked From Dallas
TTITLE6=My Country Sugar Mama
TTITLE7=Louise
TTITLE8=Hold On The Money
TTITLE9=Streamline Woman
TTITLE10=Cause Of It All
TTITLE11=Killing Floor
TTITLE12=Red Rooster
TTITLE13=Built For Comfort
TTITLE14=Do The Do
TTITLE15=Highway49
TTITLE16=Worried About You
TTITLE17=Poor Boy
TTITLE18=Wang Dang Doodle
EXTD=YEAR: 2003
EXTT0=
EXTT1=
EXTT2=
EXTT3=
EXTT4=
EXTT5=
EXTT6=
EXTT7=
EXTT8=
EXTT9=
EXTT10=
EXTT11=
EXTT12=
EXTT13=
EXTT14=
EXTT15=
EXTT16=
EXTT17=
EXTT18=
PLAYORDER=
